# xmcd
#
# Track frame offsets:
#	187
#	21280
#	44595
#	66440
#	84460
#	119827
#	138185
#	159785
#	191425
#	217450
#
# Disc length: 3231 seconds
#
# Revision: 1
# Processed by: cddbd v1.4PL0 Copyright (c) Steve Scherf et al.
# Submitted via: EasyCDDAExtractor 5.0.7
#
DISCID=950c9d0a
DTITLE=Various Artist - Tram Nho NganThuong
DYEAR=1900
DGENRE=Vietnamese
TTITLE0=Vu Khanh - Yeu
TTITLE1=Vu Khanh and Y Lan - Tinh Nghia Doi Ta
TTITLE2=Y Lan - ChoEm Quen Tuoi Ngoc
TTITLE3=Vu Khanh - Rong Reu
TTITLE4=Vu Khanh and Y Lan - Tram Nho Ngan Thuong
TTITLE5=Y Lan - Thuong Ai Nho Ai
TTITLE6=Vu Khanh and Y Lan - Chieu Tren Pha Tam Giang
TTITLE7=Vu Khanh - Tinh
TTITLE8=Vu Khanh and Y Lan - Niem Khuc Cuoi
TTITLE9=Vu Khanh - Tiec Mot Nguoi
EXTD=
EXTT0=
EXTT1=
EXTT2=
EXTT3=
EXTT4=
EXTT5=
EXTT6=
EXTT7=
EXTT8=
EXTT9=
PLAYORDER=
